<svg width="141" height="31" viewBox="0 0 141 31" fill="none" xmlns="http://www.w3.org/2000/svg">
<path d="M23.8246 27.266C17.3136 27.266 12.0369 21.9865 12.0369 15.4743C12.0369 8.96168 17.3136 3.68723 23.8246 3.68723C26.1195 3.68723 28.2621 4.34174 30.0721 5.47624L23.8246 15.4743L35.5862 8.683C34.3084 6.64698 32.4756 4.89263 30.2595 3.56137C27.4394 1.873 23.5165 0.828125 19.1787 0.828125C12.9911 0.828125 7.56256 3.07665 4.53523 6.44392C2.29388 8.93315 0.959473 12.066 0.959473 15.4741C0.959473 18.8846 2.29388 22.0198 4.53523 24.5107C7.57044 27.8822 12.9181 30.1176 19.0037 30.1176C25.0885 30.1176 30.4345 27.8805 33.4716 24.5107C33.6379 24.3252 33.799 24.1379 33.9513 23.9436L33.4926 22.2246C31.3588 25.2704 27.8245 27.266 23.8246 27.266Z" fill="#C6C6C6"/>
<path d="M62.8189 29.4085L57.8825 10.9932C57.0895 8.01734 54.3797 5.83008 51.1536 5.83008C50.3168 5.83008 49.5151 5.97957 48.7711 6.2502L38.1438 10.1146H49.074L50.9417 17.09C49.13 15.5307 46.7703 14.5819 44.1865 14.5819C39.0558 14.5819 34.9019 18.0201 34.9019 22.2612C34.9019 26.5027 39.0558 29.9459 44.1865 29.9459C47.8801 29.9459 51.1466 28.1377 53.1614 25.3596L54.245 29.4085H62.8189ZM47.7611 26.5482C45.3944 26.5482 43.4758 24.6314 43.4758 22.2612C43.4758 19.8945 45.3944 17.976 47.7611 17.976C50.1278 17.976 52.0481 19.8945 52.0481 22.2612C52.0481 24.6314 50.1278 26.5482 47.7611 26.5482Z" fill="#C6C6C6"/>
<path d="M82.9463 5.83301C82.2986 5.83301 81.6859 5.9762 81.1398 6.23265L74.3163 9.41262C73.9784 7.38133 72.2139 5.83301 70.0853 5.83301C69.4411 5.83301 68.8267 5.9762 68.2735 6.23265L59.9429 10.1144H65.8001V29.4085H74.374V12.2609C74.374 11.0777 75.3316 10.1146 76.5184 10.1146C77.6983 10.1146 78.6628 11.0777 78.6628 12.2609V29.4085H87.2333V10.1144C87.2333 7.74824 85.313 5.83318 82.9463 5.83318" fill="#C6C6C6"/>
<path d="M136.715 5.83301C136.065 5.83301 135.449 5.9762 134.894 6.23265L128.078 9.41262C127.742 7.38133 125.977 5.83301 123.849 5.83301C123.205 5.83301 122.59 5.9762 122.035 6.23265L113.708 10.1144H119.563V29.4085H128.136V12.2609C128.136 11.0777 129.095 10.1146 130.282 10.1146C131.465 10.1146 132.423 11.0777 132.423 12.2609V29.4085H141V10.1144C141 7.74824 139.078 5.83318 136.715 5.83318" fill="#C6C6C6"/>
<path d="M115.094 17.9756C115.094 24.6819 109.659 30.1173 102.955 30.1173C96.245 30.1173 90.8062 24.6819 90.8062 17.9756C90.8062 11.271 96.245 5.83301 102.955 5.83301C109.659 5.83301 115.094 11.2711 115.094 17.9756ZM103.457 9.51817C103.075 8.08941 101.607 7.24129 100.178 7.62535C98.7517 8.00784 97.8992 9.47739 98.2826 10.906L102.447 26.4324C102.832 27.8626 104.297 28.7099 105.726 28.3317C107.154 27.9449 108.003 26.4762 107.62 25.0478L103.457 9.51817Z" fill="#C6C6C6"/>
</svg>
