<svg width="88" height="88" viewBox="0 0 88 88" fill="none" xmlns="http://www.w3.org/2000/svg">
<path d="M42.7754 0.291016H45.495C58.7233 1.03655 68.1551 6.05678 75.1476 13.0924C82.1403 20.1281 87.3092 29.4075 87.9999 42.6845V45.3149C87.3283 58.8042 82.0681 67.7071 75.1476 74.9509C67.8778 81.8315 58.941 87.0447 45.4511 87.708H42.7754C29.5488 86.961 20.1153 81.9428 13.1228 74.9068C6.13029 67.8711 0.961229 58.5919 0.270508 45.3149V42.6845C0.30493 42.6749 0.321764 42.6479 0.314387 42.5968C0.975793 29.3705 6.17304 19.9946 13.123 13.0486C20.1049 6.0702 29.6345 1.01405 42.7754 0.291016ZM34.1779 6.56016C31.5716 7.25768 29.2343 8.14347 27.1158 9.1905C20.6674 12.3773 15.3497 16.9367 11.6315 22.7809C8.00235 28.4854 4.86006 35.8237 5.31512 45.4463C5.60204 51.5128 6.98707 56.6158 9.17499 60.9657C13.4958 69.5546 20.0739 75.8831 29.1775 79.7295C33.6793 81.6315 39.2575 82.9657 45.5391 82.6666C51.5643 82.3799 56.7854 81.0262 61.1111 78.8526C69.5889 74.5923 76.2701 68.019 79.9732 58.9492C81.846 54.3612 83.2623 49.0611 82.956 42.6405C82.3765 30.4778 77.4263 22.2309 70.8934 15.9419C67.6609 12.8301 63.7685 10.1831 59.1816 8.26993C54.731 6.41366 48.9373 5.03734 42.7321 5.33261C39.6815 5.47778 36.8039 5.85735 34.1779 6.56016Z" fill="#C6C6C6"/>
<path d="M40.0997 32.645C41.4895 33.5648 42.911 34.4531 44.223 35.4508C41.2591 37.3108 38.3534 39.2293 35.4063 41.1061C35.8538 41.4481 36.3626 41.7286 36.8099 42.0706C39.7816 40.189 42.7542 38.3085 45.7145 36.4152C47.0423 37.2365 48.3494 38.0783 49.5748 39.0019C46.6084 40.8744 43.7415 42.846 40.8018 44.7448C41.2373 45.0988 41.7713 45.3542 42.249 45.6655C45.2875 43.8068 48.2503 41.8725 51.2413 39.9665V33.741H57.8211V46.1479C59.6778 46.25 61.7252 46.1625 63.6553 46.1914V52.0224H51.2413V46.1037C47.594 48.3183 43.8563 50.8228 40.1874 53.162C36.3667 50.6825 32.6845 48.0639 28.8704 45.5778C27.7654 49.0781 25.1412 51.7112 20.799 52.0224C18.091 52.2159 15.0137 51.8778 11.8945 52.0224V33.741C15.7941 33.9992 20.0761 33.2199 23.1677 34.1794C25.9013 35.0279 27.8394 37.2078 28.7385 39.9224C32.5555 37.5265 36.3111 35.0697 40.0997 32.645ZM18.167 39.6156V46.1916C19.7344 46.1993 20.9265 46.2903 21.8516 45.578C23.2279 44.5185 23.5052 41.8919 22.2902 40.4924C21.4793 39.5586 20.1104 39.3625 18.2107 39.4841C18.16 39.4915 18.1632 39.5535 18.167 39.6156ZM65.3657 33.741H71.9453V46.1916H77.7355V52.0226H65.3214V33.8726C65.318 33.8104 65.3144 33.7484 65.3657 33.741Z" fill="#C6C6C6"/>
</svg>
